PathFileType	4	(X/Y/Z)	C:\Users\Biomechanik\SynologyDrive\AlexP\Athlete_03\Athlete_3_25_03_31\Squat_bw_03\marker_experimental.trc
DataRate	CameraRate	NumFrames	NumMarkers	Units	OrigDataRate	OrigDataStartFrame	OrigNumFrames
200.000000	200.000000	4	55	mm	200.000000	204	544
Frame#	Time	BL			BR			GLAB			RFHD			LFHD			C7			T6			SPINMOL			SPINM2			SPINM3			T12			BELTOL			BELT2			BELT3			SACROL			SACR2			SACR3			LTHOL			LTH2			LTH3			LSHAOL			LSHA2			LSHA3			LHEE			LTOE			LM5			RTHOL			RTH2			RTH3			RSHAOL			RSHA2			RSHA3			RHEE			RTOE			RM5			STRN			XIPH			LACR			LUAOL			LUA2			LUA3			LLAOL			LLA2			LLA3			LWRR			LWRU			RACR			RUAOL			RUA2			RUA3			RLAOL			RLA2			RLA3			RWRR			RWRU			
		X1	Y1	Z1	X2	Y2	Z2	X3	Y3	Z3	X4	Y4	Z4	X5	Y5	Z5	X6	Y6	Z6	X7	Y7	Z7	X8	Y8	Z8	X9	Y9	Z9	X10	Y10	Z10	X11	Y11	Z11	X12	Y12	Z12	X13	Y13	Z13	X14	Y14	Z14	X15	Y15	Z15	X16	Y16	Z16	X17	Y17	Z17	X18	Y18	Z18	X19	Y19	Z19	X20	Y20	Z20	X21	Y21	Z21	X22	Y22	Z22	X23	Y23	Z23	X24	Y24	Z24	X25	Y25	Z25	X26	Y26	Z26	X27	Y27	Z27	X28	Y28	Z28	X29	Y29	Z29	X30	Y30	Z30	X31	Y31	Z31	X32	Y32	Z32	X33	Y33	Z33	X34	Y34	Z34	X35	Y35	Z35	X36	Y36	Z36	X37	Y37	Z37	X38	Y38	Z38	X39	Y39	Z39	X40	Y40	Z40	X41	Y41	Z41	X42	Y42	Z42	X43	Y43	Z43	X44	Y44	Z44	X45	Y45	Z45	X46	Y46	Z46	X47	Y47	Z47	X48	Y48	Z48	X49	Y49	Z49	X50	Y50	Z50	X51	Y51	Z51	X52	Y52	Z52	X53	Y53	Z53	X54	Y54	Z54	X55	Y55	Z55	

205	1.02	960.7125244140625	36.20613861083996	-1933.546875	1063.180908203125	32.89169311523437	86.64543914794922	584.4257202148438	1011.440368652344	-1197.778686523438	538.7413330078125	1044.382446289062	-1134.75732421875	544.9097290039062	1040.643798828125	-1270.586791992188	315.7825317382812	935.6253051757814	-1203.640991210938	182.4662322998047	837.5780639648439	-1210.920288085938	159.6658782958984	814.2659912109376	-1232.839965820312	150.6376342773438	808.1003417968751	-1183.967895507812	118.568717956543	763.5103759765626	-1220.98876953125	88.65180206298828	716.7156982421876	-1219.759887695312	53.42706680297852	710.8917236328126	-1234.436767578125	52.82606506347656	706.8457031250001	-1184.016357421875	14.41366672515869	661.3624267578126	-1213.9453125	-48.65558242797852	544.3115844726564	-1238.406005859375	-46.86266326904297	541.9194335937501	-1187.061889648438	-59.34752655029297	483.2091369628907	-1214.774780273438	139.8875427246094	413.5422668457032	-1513.94287109375	184.2804565429688	351.7872314453126	-1537.210815429688	189.8563232421875	400.9693298339845	-1547.401123046875	232.6198272705078	296.0262145996095	-1627.000244140625	174.6573944091797	256.5903320312501	-1588.830322265625	215.8256988525391	238.4603729248048	-1611.713989257812	115.8048477172852	72.06739044189462	-1470.994384765625	318.3564453125	49.29026412963876	-1548.630737304688	238.5796813964844	26.08386611938487	-1627.902587890625	124.9179000854492	399.0182800292969	-914.69482421875	169.482177734375	449.6577453613282	-871.3945922851562	175.2550506591797	400.6337585449219	-877.6763305664062	215.4089508056641	307.7465820312501	-800.385986328125	216.1780700683594	228.8185119628907	-801.579833984375	185.3031616210938	259.4849548339844	-825.8794555664062	97.83467102050781	66.77716064453131	-968.1513061523438	287.3011474609375	46.7940292358399	-876.2067260742188	200.4064636230469	38.62985610961919	-801.5377807617188	426.0485229492188	769.3869018554689	-1210.245971679688	369.5013732910156	633.5429687500001	-1207.473754882812	366.4078979492188	888.8330078125001	-1367.675415039062	265.8023376464844	820.3067626953126	-1487.906494140625	212.7627563476562	787.0469360351564	-1507.482666015625	254.5166320800781	778.4674072265626	-1536.936401367188	268.5208129882812	720.3460083007814	-1628.282836914062	340.8332214355469	688.3948974609376	-1632.211303710938	327.9230651855469	736.6409912109376	-1624.770751953125	419.8704223632812	783.5760498046876	-1614.18212890625	411.9424743652344	782.0053710937501	-1536.375732421875	363.8901672363281	889.3001098632814	-1061.409301757812	269.4807739257812	821.6267089843751	-943.6351928710938	249.7169799804688	786.165283203125	-892.1393432617188	217.5791320800781	782.8673095703126	-932.950439453125	285.7337341308594	744.2443237304688	-786.8870239257812	311.5392150878906	817.7857055664062	-803.8072509765625	338.6944885253906	777.25537109375	-791.7705078125	400.8123474121094	845.21142578125	-814.3500366210938	402.2944946289062	833.4013061523438	-892.16845703125	
206	1.025	960.7120971679688	36.20622253417981	-1933.546264648438	1063.180908203125	32.89173889160156	86.645751953125	584.6778564453125	1009.362426757813	-1197.684448242188	539.0074462890625	1042.27978515625	-1134.641235351562	545.1502075195312	1038.598388671875	-1270.454956054688	316.0014953613281	933.6626586914064	-1203.539916992188	182.6449737548828	835.7850341796876	-1210.838989257812	159.8319244384766	812.5151977539064	-1232.776977539062	150.7994079589844	806.3320922851564	-1183.914916992188	118.701416015625	761.7853393554689	-1220.956298828125	88.76779174804688	715.1320800781251	-1219.775268554688	53.54610061645508	709.3577880859376	-1234.451171875	52.89882659912109	705.3283691406251	-1184.042846679688	14.48252487182617	659.8491210937501	-1213.992065429688	-48.64350128173828	542.4418945312501	-1238.454956054688	-46.82918930053711	540.0734252929689	-1187.109497070312	-59.21826934814453	481.3312377929688	-1214.806396484375	140.2127227783203	412.4761352539064	-1513.895385742188	184.8272094726562	350.9309387207032	-1537.295654296875	190.2274017333984	400.1559143066407	-1547.380859375	232.9723510742188	295.9296264648439	-1626.960205078125	174.9306488037109	256.5601196289064	-1588.830688476562	216.0912933349609	238.3845367431641	-1611.688354492188	115.8430099487305	72.07201385498055	-1470.94775390625	318.3960266113281	49.25955581665048	-1548.580810546875	238.5933227539062	26.11993598937998	-1627.870361328125	125.1870880126953	397.9560546875001	-914.610595703125	169.5783386230469	448.8460083007813	-871.4357299804688	175.4993438720703	399.8208312988282	-877.5818481445312	215.6585845947266	307.6110534667969	-800.2843017578125	216.3671722412109	228.6818389892579	-801.5243530273438	185.5221099853516	259.3793945312501	-825.8008422851562	97.89724731445312	66.78749847412115	-968.20068359375	287.3175354003906	46.77106475830084	-876.2567138671875	200.424072265625	38.6526374816895	-801.5615234375	426.2022094726562	767.3748779296876	-1210.252685546875	369.6252746582031	631.5872802734376	-1207.538818359375	366.5975952148438	886.9148559570314	-1367.594970703125	266.1053161621094	818.5073242187501	-1487.94873046875	213.0958404541016	785.2659301757814	-1507.610473632812	254.88134765625	776.7029418945314	-1537.007202148438	268.983642578125	718.6127319335939	-1628.375122070312	341.2759094238281	686.6235351562501	-1632.275390625	328.3912658691406	734.8754272460939	-1624.813842773438	420.3605651855469	781.7324218750001	-1614.076782226562	412.3467102050781	780.0935668945314	-1536.278076171875	364.1637268066406	887.2797241210939	-1061.37109375	269.8106994628906	819.6898193359376	-943.558837890625	250.0430908203125	784.2460327148438	-892.0335693359375	217.8846588134766	780.9570922851564	-932.8199462890625	286.0981750488281	742.3458251953125	-786.8051147460938	311.9352722167969	815.8836669921875	-803.7760009765625	339.0769958496094	775.3165283203125	-791.7407836914062	401.2090148925781	843.2418212890625	-814.3785400390625	402.6417846679688	831.393310546875	-892.1934814453125	
207	1.03	960.7116088867188	36.20631027221692	-1933.545654296875	1063.180908203125	32.89188766479491	86.64610290527344	584.92626953125	1007.310974121094	-1197.597412109375	539.2699584960938	1040.204956054688	-1134.532348632812	545.3828125	1036.574096679688	-1270.329467773438	316.2220764160156	931.7178344726564	-1203.440551757812	182.8261871337891	834.0118408203126	-1210.763061523438	160.0001525878906	810.7824707031251	-1232.71923828125	150.9641418457031	804.5843505859376	-1183.867553710938	118.8385467529297	760.0796508789064	-1220.927001953125	88.88344573974609	713.5658569335939	-1219.7919921875	53.66412353515625	707.8402709960939	-1234.46923828125	52.96723556518555	703.8295898437501	-1184.07421875	14.54524230957031	658.3536987304689	-1214.044555664062	-48.63157272338867	540.5951538085939	-1238.507568359375	-46.79559326171875	538.2498779296876	-1187.16064453125	-59.09247207641602	479.4768676757813	-1214.841552734375	140.5417938232422	411.4193115234376	-1513.849731445312	185.3783569335938	350.0830993652345	-1537.375122070312	190.6020355224609	399.349578857422	-1547.35986328125	233.3251495361328	295.8320312500001	-1626.918334960938	175.2061157226562	256.5285949707032	-1588.8291015625	216.3599243164062	238.3077392578126	-1611.659057617188	115.8816757202148	72.07463073730477	-1470.8994140625	318.4380798339844	49.2294807434083	-1548.528076171875	238.6078643798828	26.15691757202158	-1627.837158203125	125.4409027099609	396.9125976562501	-914.5286254882812	169.6587677001953	448.0504760742188	-871.4791259765625	175.7262573242188	399.0249633789063	-877.489501953125	215.8976898193359	307.4750976562501	-800.1827392578125	216.5511016845703	228.5451660156251	-801.47119140625	185.7325897216797	259.2726745605469	-825.72265625	97.9583740234375	66.79595947265631	-968.2509155273438	287.3332824707031	46.74847030639654	-876.3071899414062	200.4413146972656	38.67587280273442	-801.58544921875	426.3555297851562	765.3811035156251	-1210.254150390625	369.7485656738281	629.6583862304689	-1207.5927734375	366.7935180664062	885.0075683593751	-1367.513549804688	266.4065551757812	816.7288818359376	-1487.990478515625	213.425048828125	783.5075073242189	-1507.736206054688	255.2371826171875	774.9632568359376	-1537.081665039062	269.4324645996094	716.9091186523439	-1628.470703125	341.7043151855469	684.8836059570314	-1632.346801757812	328.8451843261719	733.1407470703126	-1624.860229492188	420.8370971679688	779.9190673828126	-1613.9765625	412.7410888671875	778.2076416015626	-1536.185546875	364.4322204589844	885.2796630859376	-1061.33154296875	270.133544921875	817.7716674804689	-943.4823608398438	250.3630523681641	782.3453369140625	-891.9264526367188	218.1847076416016	779.0620117187501	-932.689697265625	286.4601440429688	740.4685668945312	-786.7197875976562	312.3244018554688	814.001953125	-803.742919921875	339.4558715820312	773.401123046875	-791.7120361328125	401.5989074707031	841.2974853515625	-814.4049682617188	402.9821472167969	829.41064453125	-892.2156982421875	
208	1.035	960.7111206054688	36.20643997192395	-1933.545043945312	1063.180908203125	32.89210891723632	86.64645385742188	585.171142578125	1005.285705566406	-1197.51708984375	539.5289306640625	1038.157592773438	-1134.430053710938	545.6094360351562	1034.5712890625	-1270.211181640625	316.4440307617188	929.7910766601564	-1203.34375	183.0100250244141	832.2580566406251	-1210.692993164062	160.1707305908203	809.0673828125001	-1232.6669921875	151.1316528320312	802.8568725585939	-1183.826293945312	118.9800796508789	758.3931274414064	-1220.901000976562	88.99932098388672	712.0168457031251	-1219.809204101562	53.78140258789062	706.3390502929689	-1234.490112304688	53.03335189819336	702.3477172851564	-1184.108764648438	14.60255527496338	656.8754882812501	-1214.1015625	-48.61997222900391	538.7706298828126	-1238.563354492188	-46.76223754882812	536.4477539062501	-1187.21484375	-58.97084045410156	477.6451721191407	-1214.879638671875	140.8737030029297	410.3710021972657	-1513.806030273438	185.9328155517578	349.2432250976564	-1537.449584960938	190.9791412353516	398.549774169922	-1547.338256835938	233.6766815185547	295.7342224121095	-1626.873657226562	175.4826049804688	256.496551513672	-1588.824096679688	216.6301116943359	238.2307128906251	-1611.625854492188	115.9206085205078	72.07521057128915	-1470.849243164062	318.4824829101562	49.20075225830087	-1548.472534179688	238.6231689453125	26.19466400146494	-1627.803344726562	125.6801376342773	395.8862304687501	-914.4501953125	169.7236633300781	447.2698669433594	-871.5253295898438	175.9367370605469	398.2450256347657	-877.4000854492188	216.12646484375	307.3388671875001	-800.0816650390625	216.7301940917969	228.4086608886719	-801.420654296875	185.9347839355469	259.1647949218751	-825.6451416015625	98.01772308349609	66.80258178710943	-968.3016357421875	287.3482666015625	46.72629928588873	-876.3580322265625	200.4580841064453	38.69962692260747	-801.6093139648438	426.5086975097656	763.4055786132814	-1210.25	369.8692016601562	627.7500000000001	-1207.635498046875	366.9961242675781	883.1101684570314	-1367.431640625	266.7069702148438	814.9695434570314	-1488.031494140625	213.7500305175781	781.7699584960939	-1507.859008789062	255.5832366943359	773.2467651367189	-1537.160522460938	269.8668212890625	715.2339477539064	-1628.571655273438	342.1182250976562	683.1737670898439	-1632.424926757812	329.2843017578125	731.4353637695314	-1624.909912109375	421.2989196777344	778.1356201171876	-1613.881958007812	413.1246337890625	776.3480224609376	-1536.098510742188	364.6956787109375	883.2999877929689	-1061.290161132812	270.4490051269531	815.8719482421876	-943.4050903320312	250.6764373779297	780.46337890625	-891.81787109375	218.4791870117188	777.1818847656251	-932.5603637695312	286.8182983398438	738.6129760742188	-786.6311645507812	312.7055053710938	812.1400756835938	-803.7077026367188	339.8296813964844	771.5097045898438	-791.683837890625	401.9810485839844	839.3787231445312	-814.428466796875	403.3152770996094	827.4534301757812	-892.2341918945312	
